. 
 
http://www.torrenting.com          :     Once & For all ;)


               www . Torrenting . Com 

(((((((((((((= Enjoy No RAR releases =))))))))))))))))))))


...................................NFO:....................................

.[IMG]http://i.imgur.com/2mcr9.png[/IMG]

 
TITLE: 

Safe House 2012 TS READNFO V2 XViD - INSPiRAL

IMDB: 
 
http://www.imdb.com/title/tt1599348/


SOURCES:

VIDEO - sicv2  THANKS
AUDIO - SiCv2  THANKS
SUBS  - None Add

STATS:

Video
ID                               : 0
Format                           : MPEG-4 Visual
Format profile                   : Advanced Simple@L5
Format settings, BVOP            : 2
Format settings, QPel            : No
Format settings, GMC             : No warppoints
Format settings, Matrix          : Default (MPEG)
Muxing mode                      : Packed bitstream
Codec ID                         : XVID
Codec ID/Hint                    : XviD
Duration                         : 1h 49mn
Bit rate                         : 1 663 Kbps
Width                            : 720 pixels
Height                           : 252 pixels
Display aspect ratio             : 2.857
Frame rate                       : 25.000 fps
Color space                      : YUV
Chroma subsampling               : 4:2:0
Bit depth                        : 8 bits
Scan type                        : Progressive
Compression mode                 : Lossy
Bits/(Pixel*Frame)               : 0.367
Stream size                      : 1.27 GiB (92%)
Writing library                  : XviD 64

Audio
ID                               : 1
Format                           : MPEG Audio
Format version                   : Version 1
Format profile                   : Layer 3
Mode                             : Joint stereo
Mode extension                   : MS Stereo
Codec ID                         : 55
Codec ID/Hint                    : MP3
Duration                         : 1h 49mn
Bit rate mode                    : Constant
Bit rate                         : 128 Kbps
Channel(s)                       : 2 channels
Sampling rate                    : 44.1 KHz
Compression mode                 : Lossy
Stream size                      : 100 MiB (7%)
Alignment                        : Split accross interleaves
Interleave, duration             : 40 ms (1.00 video frame)
Interleave, preload duration     : 500 ms


NOTES:

sources: 

Ok took sics v2 and thought i'd do a basic re-encode....they did a good job and levelled up the video nicely,a little bit more
cropped than infernos but not much.Down side it was dark and fill of noise ....not so much their fault but how the source was so ...

Workdone:
Just made a script to inc heavy noise filter aswell as adding HQ smoother in vdub to it ...also changed the brightness,contrast,hue+intes,
sharpness,chroma etc...
Audio dropped in AA and cleaned it up nicely as it was full of noise.

Overall v 6.5 a 7 m8 .....still needs better video IMHO,but ok for small tv viewing.


SCREENS:

[IMG]http://i.imgur.com/aXti5.png[/IMG]
[IMG]http://i.imgur.com/Upky2.png[/IMG]
[IMG]http://i.imgur.com/qFqaK.png[/IMG]
[IMG]http://i.imgur.com/oMVdm.png[/IMG]


GREETZ: 

Past,Present and Future

[IMG]http://i.imgur.com/2mcr9.png[/IMG]